Patient4_TMGait_0pt6_01_right_23_EMG.mot
version=1
nRows=13
nColumns=33
inDegrees=no
endheader
time	1LAddLong	2LGlutMax	3LGlutMed	4LIliopsoas	5LSemiMemb	6LBicFemLong	7LRecFem	8LVastMed	9LVastLat	10LGasMed	11LTibAnt	12lTibPost	13LPeroneusLong	14LSol	15LExtDigLong	16LFlexDigLong	17RAddLong	18RGlutMax	19RGlutMed	20RIliopsoas	21RSemiMemb	22RBicFemLong	23RRecFem	24RVastMed	25RVastLat	26RGasMed	27RTibAnt	28RTibPost	29RPeroneusLong	30RSol	31RExtDigLong	32RFlexDigLong
27.42	0.011902	0.013428	0.097046	-0.027161	0.014801	0.12817	0.009003	0.004425	-0.016174	0.018768	-0.14236	0.006256	-0.72739	-0.005188	-0.039368	0.001221	0.010223	-0.027771	0.014648	-0.084229	0.00824	0.005035	-0.091553	-0.14023	-0.018921	-0.003357	0.3067	-0.008392	-0.31082	-0.056	0.006561	-0.005341
27.421	0.014191	0.022888	0.076294	-0.008545	-0.012512	0.13718	-0.031433	0.009766	-0.04837	-0.0177	-0.065613	0.010529	-0.11292	0.057526	0.23743	0.017395	0.013885	-0.039825	-0.030823	-0.14313	0.006104	0.015564	-0.044403	-0.022278	-0.010223	0.003815	0.15198	-0.00824	-0.10788	-0.096741	0.002441	-0.006714
27.422	0.023041	-0.012665	-0.019379	-0.003052	-0.028839	0.037689	-0.068512	0.004578	-0.021667	0.009918	0.04715	-0.000458	0.29037	-0.033112	-0.17181	0.006561	0.007629	0.022125	-0.075836	-0.18204	0.01236	-0.002441	0.13382	-0.013275	-0.022583	0.002441	0.39536	-0.005035	0.13809	-0.046692	0.004272	0.001984
27.423	0.025787	-0.007172	0.095978	-0.01709	0.00351	-0.084686	-0.074463	-0.004425	0.019684	-0.066376	0.020599	0.010071	0.30563	0.15701	-0.002136	-0.013885	0.02121	-0.04425	-0.037384	-0.15945	0.007477	-0.002136	0.14923	0.001068	-0.045166	-0.003052	0.36514	-0.006409	0.021057	0.028687	0.003815	-0.000153
27.424	0.020142	0.036316	0.22369	-0.012054	0.011749	-0.12848	0.028381	-0.01709	0.046692	-0.15656	0.056152	0.007019	0.00061	0.30456	-0.19302	-0.011902	0.004272	0.035706	0.16144	0.063477	-0.004272	-0.019684	0.20874	-0.020294	-0.002136	-0.002289	-0.047302	-0.00473	-0.10361	0.056152	0	-0.000153
27.425	0.019836	0.061798	0.13886	0.015869	0.026093	-0.17395	0.10605	0.000458	0.047302	-0.060883	0.02533	0.006866	-0.33615	-0.016785	-0.13947	-0.013733	0.002441	0.04303	0.46768	0.13306	0.002441	0.011139	0.30273	0.010223	0.006409	-0.012512	-0.16373	-0.008545	-0.18906	-0.006104	0.009613	-0.004883
27.426	0.020294	0.039825	0.12665	-0.001984	0.048523	-0.13351	0.12787	-0.004883	0.039673	-0.026703	0.012817	0.015106	-0.21545	-0.007629	0.035248	-0.012665	0.00061	-0.029907	0.052795	0.041656	0.002747	0.00351	0.21316	0.099487	0.006866	-0.007477	-0.35538	-0.012207	-0.056915	-0.066681	-0.000153	-0.009766
27.427	0.013428	0.028076	0.028381	-0.005188	0.025024	-0.07782	0.11643	-0.003052	0.024719	-0.016632	0.019073	0.015717	-0.14603	0.14618	-0.086212	-0.016937	0.002747	-0.025024	-0.23636	0.082245	-0.007477	0.014343	0.10971	0.066833	0.022888	-0.010529	-0.23041	-0.00473	0.094604	-0.099945	-0.003662	-0.009766
27.428	0.006104	0.061035	-0.10468	0.007629	0.001221	-0.037231	0.11353	0.002899	0.016022	-0.046082	0.015869	0.006104	-0.051575	0.11231	-0.33905	-0.014648	0.006866	0.026703	-0.31509	0.16144	-0.009003	0.006561	0.003357	0.040741	-0.008545	-0.001068	0.044708	-0.014954	0.10681	-0.17609	-0.000153	-0.001221
27.429	0.014801	0.083923	-0.078125	0.00824	-0.002899	-0.050812	0.090637	0.003357	-0.007629	-0.040588	0.048218	0.015564	0.09903	0.11002	-0.29358	-0.010834	0.005951	0.041504	-0.25238	0.16357	-0.009308	0.01297	-0.10407	-0.007019	-0.017242	0.001984	-0.14069	-0.004425	-0.14832	-0.2034	-0.004578	-0.00824
27.43	0.01236	0.097656	-0.18219	0.015259	-0.007782	-0.071716	0.067291	-0.007935	0.018921	0.03418	0.031738	0.020905	-0.035706	0.031586	-0.15198	0.005646	0.006866	0.053253	-0.085754	0.075226	-0.000916	0.005646	-0.1648	0.011444	-0.00412	0.010681	-0.17899	-0.004272	-0.19241	-0.18524	0.002441	0.001068
27.431	0.012512	0.091248	-0.21973	0.019836	-0.006104	-0.036011	0.095825	0.011292	-0.003357	0.070343	0.01297	0.012817	-0.30151	0.12054	0.039215	0.008698	-0.002136	0.02594	0.092316	0.016327	-0.002289	0.004425	-0.24429	-0.018311	-0.036163	0.002747	-0.28595	-0.005188	-0.04425	-0.070343	-0.003052	-0.000916
27.432	0.020752	0.1239	-0.013275	-0.005341	0.026245	-0.091553	0.11551	0.014343	-0.040588	0.049286	0.03952	0.013885	-0.11337	0.056305	0.12177	0.00412	0.020294	0.025787	0.04715	0.007477	0.00351	0.003815	-0.23102	-0.03006	-0.043793	-0.009003	-0.28564	-0.015717	0.075226	0.10956	0.001373	-0.002441
